{
  "accessors": [
    {
      "bufferView": 2,
      "componentType": 5126,
      "count": 1524,
      "max": [
        0.0036087047774344683,
        0.004155423957854509,
        0.1803913712501526
      ],
      "min": [
        -0.0036087047774344683,
        -0.004155423957854509,
        0.0
      ],
      "type": "VEC3"
    },
    {
      "bufferView": 2,
      "byteOffset": 18288,
      "componentType": 5126,
      "count": 1524,
      "max": [
        1.0,
        0.9999988675117493,
        1.0
      ],
      "min": [
        -1.0,
        -1.0,
        -1.0
      ],
      "type": "VEC3"
    },
    {
      "bufferView": 3,
      "componentType": 5126,
      "count": 1524,
      "max": [
        0.9992377758026123,
        0.9999986886978149,
        1.0,
        1.0
      ],
      "min": [
        -0.9990442395210266,
        -0.9999986886978149,
        -0.9921619296073914,
        -1.0
      ],
      "type": "VEC4"
    },
    {
      "bufferView": 1,
      "componentType": 5126,
      "count": 1524,
      "max": [
        0.9955999255180359,
        0.9479186534881592
      ],
      "min": [
        0.004400067497044802,
        0.004399552475661039
      ],
      "type": "VEC2"
    },
    {
      "bufferView": 1,
      "byteOffset": 12192,
      "componentType": 5126,
      "count": 1524,
      "max": [
        0.9955999255180359,
        0.9479186534881592
      ],
      "min": [
        0.004400067497044802,
        0.004399552475661039
      ],
      "type": "VEC2"
    },
    {
      "bufferView": 1,
      "byteOffset": 24384,
      "componentType": 5126,
      "count": 1524,
      "max": [
        0.9955999255180359,
        0.9479186534881592
      ],
      "min": [
        0.004400067497044802,
        0.004399552475661039
      ],
      "type": "VEC2"
    },
    {
      "bufferView": 0,
      "componentType": 5125,
      "count": 2322,
      "type": "SCALAR"
    }
  ],
  "asset": {
    "extras": {
      "author": "Mark Peters (https://sketchfab.com/mark-peters)",
      "license": "CC-BY-4.0 (http://creativecommons.org/licenses/by/4.0/)",
      "source": "https://sketchfab.com/3d-models/used-pencil-2048px2-4f14532caf244e19bdb5faf925a95184",
      "title": "Used Pencil - 2048px²"
    },
    "generator": "Sketchfab-16.59.0",
    "version": "2.0"
  },
  "bufferViews": [
    {
      "buffer": 0,
      "byteLength": 9288,
      "name": "floatBufferViews",
      "target": 34963
    },
    {
      "buffer": 0,
      "byteLength": 36576,
      "byteOffset": 9288,
      "byteStride": 8,
      "name": "floatBufferViews",
      "target": 34962
    },
    {
      "buffer": 0,
      "byteLength": 36576,
      "byteOffset": 45864,
      "byteStride": 12,
      "name": "floatBufferViews",
      "target": 34962
    },
    {
      "buffer": 0,
      "byteLength": 24384,
      "byteOffset": 82440,
      "byteStride": 16,
      "name": "floatBufferViews",
      "target": 34962
    }
  ],
  "buffers": [
    {
      "byteLength": 106824,
      "uri": "scene.bin"
    }
  ],
  "images": [
    {
      "uri": "textures/pencil_MTL_baseColor.png"
    },
    {
      "uri": "textures/pencil_MTL_metallicRoughness.png"
    },
    {
      "uri": "textures/pencil_MTL_normal.png"
    }
  ],
  "materials": [
    {
      "name": "pencil_MTL",
      "normalTexture": {
        "index": 2
      },
      "pbrMetallicRoughness": {
        "baseColorTexture": {
          "index": 0
        },
        "metallicRoughnessTexture": {
          "index": 1
        }
      }
    }
  ],
  "meshes": [
    {
      "name": "Lowpoly_pencil_MTL_0",
      "primitives": [
        {
          "attributes": {
            "NORMAL": 1,
            "POSITION": 0,
            "TANGENT": 2,
            "TEXCOORD_0": 3,
            "TEXCOORD_1": 4,
            "TEXCOORD_2": 5
          },
          "indices": 6,
          "material": 0,
          "mode": 4
        }
      ]
    }
  ],
  "nodes": [
    {
      "children": [
        1
      ],
      "matrix": [
        1.0,
        0.0,
        0.0,
        0.0,
        0.0,
        -1.0,
        -4.440892098500626e-16,
        0.0,
        0.0,
        4.440892098500626e-16,
        -1.0,
        0.0,
        0.0,
        0.0,
        0.0,
        1.0
      ],
      "name": "Sketchfab_model"
    },
    {
      "children": [
        2
      ],
      "matrix": [
        0.009999999776482582,
        0.0,
        0.0,
        0.0,
        0.0,
        0.0,
        0.009999999776482582,
        0.0,
        0.0,
        -0.009999999776482582,
        0.0,
        0.0,
        0.0,
        0.0,
        0.0,
        1.0
      ],
      "name": "801421a668944477b31a33fd7f8a4c12.fbx"
    },
    {
      "children": [
        3
      ],
      "name": "RootNode"
    },
    {
      "children": [
        4
      ],
      "matrix": [
        99.68830108642578,
        0.0,
        0.0,
        0.0,
        0.0,
        -1.63189860470392e-05,
        -100.16522216796743,
        0.0,
        0.0,
        99.99999999999868,
        -1.629206793918314e-05,
        0.0,
        0.0,
        0.0,
        0.0,
        1.0
      ],
      "name": "Lowpoly"
    },
    {
      "mesh": 0,
      "name": "Lowpoly_pencil_MTL_0"
    }
  ],
  "samplers": [
    {
      "magFilter": 9729,
      "minFilter": 9987,
      "wrapS": 10497,
      "wrapT": 10497
    }
  ],
  "scene": 0,
  "scenes": [
    {
      "name": "Sketchfab_Scene",
      "nodes": [
        0
      ]
    }
  ],
  "textures": [
    {
      "sampler": 0,
      "source": 0
    },
    {
      "sampler": 0,
      "source": 1
    },
    {
      "sampler": 0,
      "source": 2
    }
  ]
}
