{
  "accessors": [
    {
      "bufferView": 2,
      "componentType": 5126,
      "count": 830,
      "max": [
        7.346459865570068,
        13.305299758911133,
        4.5921101570129395
      ],
      "min": [
        -7.165410041809082,
        -0.19860400259494781,
        -4.580709934234619
      ],
      "type": "VEC3"
    },
    {
      "bufferView": 2,
      "byteOffset": 9960,
      "componentType": 5126,
      "count": 830,
      "max": [
        0.9976761341094971,
        0.9998627305030823,
        0.999579906463623
      ],
      "min": [
        -0.9993460178375244,
        -0.9999467134475708,
        -0.9965289831161499
      ],
      "type": "VEC3"
    },
    {
      "bufferView": 3,
      "componentType": 5126,
      "count": 830,
      "max": [
        0.9999982714653015,
        0.9997535943984985,
        0.9961909055709839,
        1.0
      ],
      "min": [
        -1.0,
        -0.9984197616577148,
        -0.9993158578872681,
        -1.0
      ],
      "type": "VEC4"
    },
    {
      "bufferView": 1,
      "componentType": 5126,
      "count": 830,
      "max": [
        0.6187499761581421,
        1.0
      ],
      "min": [
        0.125,
        0.0
      ],
      "type": "VEC2"
    },
    {
      "bufferView": 0,
      "componentType": 5125,
      "count": 3672,
      "type": "SCALAR"
    }
  ],
  "asset": {
    "extras": {
      "author": "Laurie Annis (https://sketchfab.com/laurieannis)",
      "license": "CC-BY-4.0 (http://creativecommons.org/licenses/by/4.0/)",
      "source": "https://sketchfab.com/3d-models/paper-bag-sack-lunch-c37a9fc90d354aeaaa402658b29db18c",
      "title": "Paper Bag Sack Lunch"
    },
    "generator": "Sketchfab-16.21.0",
    "version": "2.0"
  },
  "bufferViews": [
    {
      "buffer": 0,
      "byteLength": 14688,
      "name": "floatBufferViews",
      "target": 34963
    },
    {
      "buffer": 0,
      "byteLength": 6640,
      "byteOffset": 14688,
      "byteStride": 8,
      "name": "floatBufferViews",
      "target": 34962
    },
    {
      "buffer": 0,
      "byteLength": 19920,
      "byteOffset": 21328,
      "byteStride": 12,
      "name": "floatBufferViews",
      "target": 34962
    },
    {
      "buffer": 0,
      "byteLength": 13280,
      "byteOffset": 41248,
      "byteStride": 16,
      "name": "floatBufferViews",
      "target": 34962
    }
  ],
  "buffers": [
    {
      "byteLength": 54528,
      "uri": "scene.bin"
    }
  ],
  "images": [
    {
      "uri": "textures/DefaultMaterial.001_baseColor.png"
    },
    {
      "uri": "textures/DefaultMaterial.001_metallicRoughness.png"
    },
    {
      "uri": "textures/DefaultMaterial.001_normal.png"
    }
  ],
  "materials": [
    {
      "doubleSided": true,
      "name": "DefaultMaterial.001",
      "normalTexture": {
        "index": 2
      },
      "occlusionTexture": {
        "index": 1
      },
      "pbrMetallicRoughness": {
        "baseColorTexture": {
          "index": 0
        },
        "metallicRoughnessTexture": {
          "index": 1
        }
      }
    }
  ],
  "meshes": [
    {
      "name": "SackLunch.002_DefaultMaterial.001_0",
      "primitives": [
        {
          "attributes": {
            "NORMAL": 1,
            "POSITION": 0,
            "TANGENT": 2,
            "TEXCOORD_0": 3
          },
          "indices": 4,
          "material": 0,
          "mode": 4
        }
      ]
    }
  ],
  "nodes": [
    {
      "children": [
        1
      ],
      "matrix": [
        1.0,
        0.0,
        0.0,
        0.0,
        0.0,
        2.220446049250313e-16,
        -1.0,
        0.0,
        0.0,
        1.0,
        2.220446049250313e-16,
        0.0,
        0.0,
        0.0,
        0.0,
        1.0
      ],
      "name": "Sketchfab_model"
    },
    {
      "children": [
        2
      ],
      "matrix": [
        0.009999999776482582,
        0.0,
        0.0,
        0.0,
        0.0,
        0.0,
        0.009999999776482582,
        0.0,
        0.0,
        -0.009999999776482582,
        0.0,
        0.0,
        0.0,
        0.0,
        0.0,
        1.0
      ],
      "name": "e0bea8fac559497b9570cea825791aaf.fbx"
    },
    {
      "children": [
        3
      ],
      "name": "RootNode"
    },
    {
      "children": [
        4
      ],
      "matrix": [
        0.9999990463256836,
        0.0,
        0.0,
        0.0,
        0.0,
        0.9999990463256703,
        1.62920529569673e-07,
        0.0,
        0.0,
        -1.62920529569673e-07,
        0.9999990463256703,
        0.0,
        0.0,
        0.0,
        0.0,
        1.0
      ],
      "name": "SackLunch.002"
    },
    {
      "mesh": 0,
      "name": "SackLunch.002_DefaultMaterial.001_0"
    }
  ],
  "samplers": [
    {
      "magFilter": 9729,
      "minFilter": 9987,
      "wrapS": 10497,
      "wrapT": 10497
    }
  ],
  "scene": 0,
  "scenes": [
    {
      "name": "Sketchfab_Scene",
      "nodes": [
        0
      ]
    }
  ],
  "textures": [
    {
      "sampler": 0,
      "source": 0
    },
    {
      "sampler": 0,
      "source": 1
    },
    {
      "sampler": 0,
      "source": 2
    }
  ]
}
