{
  "accessors": [
    {
      "bufferView": 2,
      "componentType": 5126,
      "count": 4264,
      "max": [
        117.28170013427734,
        -548.5380249023438,
        73.52999877929688
      ],
      "min": [
        1.0595999956130981,
        -587.30517578125,
        0.5666000247001648
      ],
      "type": "VEC3"
    },
    {
      "bufferView": 2,
      "byteOffset": 51168,
      "componentType": 5126,
      "count": 4264,
      "max": [
        0.9999339580535889,
        0.9999364614486694,
        0.9999768733978271
      ],
      "min": [
        -0.9999181032180786,
        -0.9999842643737793,
        -0.9999998807907104
      ],
      "type": "VEC3"
    },
    {
      "bufferView": 3,
      "componentType": 5126,
      "count": 4264,
      "max": [
        0.9999998211860657,
        0.9999663829803467,
        0.9999715685844421,
        1.0
      ],
      "min": [
        -0.999989926815033,
        -0.9997773766517639,
        -0.9998710751533508,
        -1.0
      ],
      "type": "VEC4"
    },
    {
      "bufferView": 1,
      "componentType": 5126,
      "count": 4264,
      "max": [
        0.982200026512146,
        0.9994999766349792
      ],
      "min": [
        0.0005000000237487257,
        0.0005000000237487257
      ],
      "type": "VEC2"
    },
    {
      "bufferView": 0,
      "componentType": 5125,
      "count": 20415,
      "type": "SCALAR"
    }
  ],
  "asset": {
    "extras": {
      "author": "andree (https://sketchfab.com/maestronoov)",
      "license": "CC-BY-4.0 (http://creativecommons.org/licenses/by/4.0/)",
      "source": "https://sketchfab.com/3d-models/leather-bag-c1969377971847a5aa98aab13613d424",
      "title": "Leather Bag"
    },
    "generator": "Sketchfab-12.65.0",
    "version": "2.0"
  },
  "bufferViews": [
    {
      "buffer": 0,
      "byteLength": 81660,
      "name": "floatBufferViews",
      "target": 34963
    },
    {
      "buffer": 0,
      "byteLength": 34112,
      "byteOffset": 81660,
      "byteStride": 8,
      "name": "floatBufferViews",
      "target": 34962
    },
    {
      "buffer": 0,
      "byteLength": 102336,
      "byteOffset": 115772,
      "byteStride": 12,
      "name": "floatBufferViews",
      "target": 34962
    },
    {
      "buffer": 0,
      "byteLength": 68224,
      "byteOffset": 218108,
      "byteStride": 16,
      "name": "floatBufferViews",
      "target": 34962
    }
  ],
  "buffers": [
    {
      "byteLength": 286332,
      "uri": "scene.bin"
    }
  ],
  "images": [
    {
      "uri": "textures/bag_gastadalow_defaultMat_baseColor.png"
    },
    {
      "uri": "textures/bag_gastadalow_defaultMat_metallicRoughness.png"
    },
    {
      "uri": "textures/bag_gastadalow_defaultMat_normal.png"
    }
  ],
  "materials": [
    {
      "doubleSided": true,
      "name": "bag_gastadalow_defaultMat",
      "normalTexture": {
        "index": 2,
        "scale": 0.5678197512836576
      },
      "pbrMetallicRoughness": {
        "baseColorTexture": {
          "index": 0
        },
        "metallicRoughnessTexture": {
          "index": 1
        }
      }
    }
  ],
  "meshes": [
    {
      "name": "Object_0",
      "primitives": [
        {
          "attributes": {
            "NORMAL": 1,
            "POSITION": 0,
            "TANGENT": 2,
            "TEXCOORD_0": 3
          },
          "indices": 4,
          "material": 0,
          "mode": 4
        }
      ]
    }
  ],
  "nodes": [
    {
      "children": [
        1
      ],
      "matrix": [
        1.0,
        0.0,
        0.0,
        0.0,
        0.0,
        2.220446049250313e-16,
        -1.0,
        0.0,
        0.0,
        1.0,
        2.220446049250313e-16,
        0.0,
        0.0,
        0.0,
        0.0,
        1.0
      ],
      "name": "Sketchfab_model"
    },
    {
      "children": [
        2
      ],
      "name": "bag low.OBJ.cleaner.materialmerger.gles"
    },
    {
      "mesh": 0,
      "name": "Object_2"
    }
  ],
  "samplers": [
    {
      "magFilter": 9729,
      "minFilter": 9987,
      "wrapS": 10497,
      "wrapT": 10497
    }
  ],
  "scene": 0,
  "scenes": [
    {
      "name": "Sketchfab_Scene",
      "nodes": [
        0
      ]
    }
  ],
  "textures": [
    {
      "sampler": 0,
      "source": 0
    },
    {
      "sampler": 0,
      "source": 1
    },
    {
      "sampler": 0,
      "source": 2
    }
  ]
}
